<?xml version="1.0" encoding="UTF-8"?> <svg xmlns="http://www.w3.org/2000/svg" width="156" height="224" viewBox="0 0 156 224" fill="none"> <path d="M68.0833 32.5335V76.0401H60.75V116.707H50.5V169.336H40.25V211.496" stroke="#BC6741" stroke-width="4" stroke-miterlimit="10" stroke-linecap="round" stroke-linejoin="round"></path> <path d="M119.583 209.033V197.987H109.583V137.205H100.5V97.1999H92.5833V50.1999H79.9167V32.5332H74.25V1.99988" stroke="#BC6741" stroke-width="4" stroke-miterlimit="10" stroke-linecap="round" stroke-linejoin="round"></path> <path d="M50.5 169.337H59.9167V197.987H77.9167V221.487" stroke="#BC6741" stroke-width="4" stroke-miterlimit="10" stroke-linecap="round" stroke-linejoin="round"></path> <path d="M59.917 116.707H69.7222V158.447" stroke="#BC6741" stroke-width="4" stroke-miterlimit="10" stroke-linecap="round" stroke-linejoin="round"></path> <path d="M99.25 137.206H91.8052V175.78" stroke="#BC6741" stroke-width="4" stroke-miterlimit="10" stroke-linecap="round" stroke-linejoin="round"></path> <path d="M92.5837 97.2004H85.667V116.707" stroke="#BC6741" stroke-width="4" stroke-miterlimit="10" stroke-linecap="round" stroke-linejoin="round"></path> <path d="M68.0835 76.04H76.0835V90" stroke="#BC6741" stroke-width="4" stroke-miterlimit="10" stroke-linecap="round" stroke-linejoin="round"></path> <path d="M107.467 75.614C134.714 87.1473 153.833 114.121 153.833 145.57C153.833 187.498 119.843 221.487 77.9167 221.487C35.9891 221.487 2 187.498 2 145.57C2 114.267 20.95 87.3872 48.0057 75.7739" stroke="#BC6741" stroke-width="4" stroke-miterlimit="10" stroke-linecap="round" stroke-linejoin="round"></path> <path d="M79.917 50.2004V64.0938" stroke="#BC6741" stroke-width="4" stroke-miterlimit="10" stroke-linecap="round" stroke-linejoin="round"></path> <path d="M59.917 197.987V207.153" stroke="#BC6741" stroke-width="4" stroke-miterlimit="10" stroke-linecap="round" stroke-linejoin="round"></path> <path d="M77.917 197.987V186.875H97.8889V207.153" stroke="#BC6741" stroke-width="4" stroke-miterlimit="10" stroke-linecap="round" stroke-linejoin="round"></path> <path d="M109.583 197.987H97.8887" stroke="#BC6741" stroke-width="4" stroke-miterlimit="10" stroke-linecap="round" stroke-linejoin="round"></path> </svg> 