<?xml version="1.0" encoding="UTF-8"?> <svg xmlns="http://www.w3.org/2000/svg" width="188" height="150" viewBox="0 0 188 150" fill="none"> <path d="M70.3269 147.557V77.6261C70.3269 68.223 69.7078 62.6957 72.8465 56.1031C76.8346 47.7438 85.4444 42.771 93.5647 38.3063C101.671 42.771 110.28 47.7438 114.268 56.1031C117.407 62.6957 116.788 65.2225 116.788 77.6261V147.557" stroke="#F8C300" stroke-width="4.00001" stroke-miterlimit="10" stroke-linecap="round" stroke-linejoin="round"></path> <path d="M140.552 147.563H46.5537V18.5637H140.552V147.563Z" stroke="#F8C300" stroke-width="3.99999" stroke-miterlimit="10" stroke-linecap="round"></path> <path d="M46.5663 18.5557L39.1133 1.99989H93.5603H148.007L140.569 18.5557" stroke="#F8C300" stroke-width="4.00001" stroke-miterlimit="10" stroke-linecap="round"></path> <path d="M140.563 32.894H151.999L185.106 46.2272V147.56H140.563" stroke="#F8C300" stroke-width="4" stroke-miterlimit="10" stroke-linecap="round" stroke-linejoin="round"></path> <path d="M46.5557 32.8961H35.1061L2 46.2294V147.562H46.5557" stroke="#F8C300" stroke-width="4" stroke-miterlimit="10" stroke-linecap="round" stroke-linejoin="round"></path> <path d="M140.563 74.4488L185.106 83.0596" stroke="#F8C300" stroke-width="4" stroke-miterlimit="10" stroke-linecap="round"></path> <path d="M46.5557 74.4492L2 83.0615" stroke="#F8C300" stroke-width="4" stroke-miterlimit="10" stroke-linecap="round"></path> <path d="M116.776 105.886H106.183C104.283 105.886 103.074 103.8 104.052 102.176C105.247 100.258 105.909 97.9921 105.866 95.5682C105.794 89.0608 100.396 83.5825 93.8904 83.4026C86.9238 83.2111 81.2096 88.8046 81.2096 95.7323C81.2096 98.1144 81.886 100.34 83.0519 102.227C84.0739 103.856 82.8504 105.959 80.936 105.959H70.3135" stroke="#F8C300" stroke-width="3.99999" stroke-miterlimit="10" stroke-linecap="round"></path> <path d="M81.9316 147.558V125.111H105.192V147.558" stroke="#F8C300" stroke-width="4.00002" stroke-miterlimit="10" stroke-linecap="round"></path> <path d="M13.2168 60.8993V68.1211" stroke="#F8C300" stroke-width="3.99999" stroke-miterlimit="10" stroke-linecap="round"></path> <path d="M24.9961 57.2834V64.5059" stroke="#F8C300" stroke-width="3.99999" stroke-miterlimit="10" stroke-linecap="round"></path> <path d="M36.7754 53.6676V60.8916" stroke="#F8C300" stroke-width="4.00001" stroke-miterlimit="10" stroke-linecap="round"></path> <path d="M174.608 60.8958V68.1182" stroke="#F8C300" stroke-width="3.99999" stroke-miterlimit="10" stroke-linecap="round"></path> <path d="M162.829 57.2798V64.502" stroke="#F8C300" stroke-width="4" stroke-miterlimit="10" stroke-linecap="round"></path> <path d="M151.05 53.6728V60.8945" stroke="#F8C300" stroke-width="3.99999" stroke-miterlimit="10" stroke-linecap="round"></path> <path d="M13.2168 80.8953V114.065" stroke="#F8C300" stroke-width="3.99999" stroke-miterlimit="10" stroke-linecap="round"></path> <path d="M24.2793 80.8914V114.061" stroke="#F8C300" stroke-width="4.00001" stroke-miterlimit="10" stroke-linecap="round"></path> <path d="M35.3418 76.3456V114.056" stroke="#F8C300" stroke-width="4.00002" stroke-miterlimit="10" stroke-linecap="round"></path> <path d="M172.5 80.8873V114.056" stroke="#F8C300" stroke-width="4.00001" stroke-miterlimit="10" stroke-linecap="round"></path> <path d="M161.438 80.892V114.062" stroke="#F8C300" stroke-width="3.99999" stroke-miterlimit="10" stroke-linecap="round"></path> <path d="M150.376 76.3564V114.066" stroke="#F8C300" stroke-width="3.99998" stroke-miterlimit="10" stroke-linecap="round"></path> </svg> 