<?xml version="1.0" encoding="UTF-8"?> <svg xmlns="http://www.w3.org/2000/svg" width="214" height="174" viewBox="0 0 214 174" fill="none"> <path d="M59.6352 60.0355C60.3338 69.7742 59.1178 85.8435 49.7271 108.009C49.7271 108.009 12.7111 81.0115 37.5617 51.5688" stroke="#E0CABF" stroke-width="4" stroke-miterlimit="10" stroke-linecap="round" stroke-linejoin="round"></path> <path d="M100.849 31.8047C91.2968 25.034 78.1247 21.1727 62.7607 31.3127" stroke="#E0CABF" stroke-width="4" stroke-miterlimit="10" stroke-linecap="round" stroke-linejoin="round"></path> <path d="M51.8564 44.9387C51.8564 44.9387 65.0551 57.0093 87.4391 56.9253" stroke="#E0CABF" stroke-width="4" stroke-miterlimit="10" stroke-linecap="round" stroke-linejoin="round"></path> <path d="M40.4726 37.4313C34.2006 37.498 27.8194 37.9739 21.974 40.2499C14.0207 43.3473 7.45267 49.8326 4.254 57.746C1.05533 65.658 1.27135 74.886 4.83668 82.6406C7.63668 75.3153 13.9287 69.4019 21.2354 65.9086" stroke="#E0CABF" stroke-width="4" stroke-miterlimit="10" stroke-linecap="round" stroke-linejoin="round"></path> <path d="M54.146 27.5898C57.8207 15.7432 67.954 6.12316 79.978 3.06849C85.4247 1.68449 91.1753 1.67113 96.662 2.87513" stroke="#E0CABF" stroke-width="4" stroke-miterlimit="10" stroke-linecap="round" stroke-linejoin="round"></path> <path d="M47.9769 15.7087C45.1089 13.6207 41.7222 12.1981 38.2209 11.6288C30.9022 10.4408 23.2662 12.7008 17.1876 16.9434C11.1076 21.1861 6.49022 27.2834 3.14355 33.8994C6.87422 31.5367 11.4382 31.3367 15.7942 32.0554C17.4582 32.3287 19.0782 32.8448 20.6008 33.5674" stroke="#E0CABF" stroke-width="4" stroke-miterlimit="10" stroke-linecap="round" stroke-linejoin="round"></path> <path d="M60.4004 66.6173C60.4004 66.6173 91.7751 99.28 91.7751 171.46" stroke="#E0CABF" stroke-width="4" stroke-miterlimit="10" stroke-linecap="round" stroke-linejoin="round"></path> <path d="M79.9062 64.1453C90.0129 78.7546 106.964 112.107 106.964 171.46" stroke="#E0CABF" stroke-width="4" stroke-miterlimit="10" stroke-linecap="round" stroke-linejoin="round"></path> <path d="M154.363 60.0355C153.67 69.7742 154.883 85.8435 164.27 108.009C164.27 108.009 201.283 81.0115 176.43 51.5688" stroke="#E0CABF" stroke-width="4" stroke-miterlimit="10" stroke-linecap="round" stroke-linejoin="round"></path> <path d="M162.137 44.9382C162.137 44.9382 136.75 68.1649 96.665 49.9542C96.665 49.9542 119.177 10.1555 151.244 31.3129" stroke="#E0CABF" stroke-width="4" stroke-miterlimit="10" stroke-linecap="round" stroke-linejoin="round"></path> <path d="M173.523 37.4313C179.803 37.498 186.177 37.9739 192.03 40.2499C199.977 43.3473 206.55 49.8326 209.75 57.746C212.937 65.658 212.724 74.886 209.164 82.6406C206.364 75.3153 200.07 69.4019 192.764 65.9086" stroke="#E0CABF" stroke-width="4" stroke-miterlimit="10" stroke-linecap="round" stroke-linejoin="round"></path> <path d="M159.857 27.5898C156.177 15.7432 146.044 6.12316 134.017 3.06849C122.004 0.0151549 108.497 3.63251 99.6182 12.2898C105.457 14.3192 110.697 17.2698 115.577 20.8525" stroke="#E0CABF" stroke-width="4" stroke-miterlimit="10" stroke-linecap="round" stroke-linejoin="round"></path> <path d="M166.017 15.7087C168.883 13.6207 172.27 12.1981 175.777 11.6288C183.097 10.4408 190.737 12.7008 196.817 16.9434C202.897 21.1861 207.51 27.2834 210.857 33.8994C207.123 31.5367 202.563 31.3367 198.203 32.0554C196.537 32.3287 194.923 32.8448 193.403 33.5674" stroke="#E0CABF" stroke-width="4" stroke-miterlimit="10" stroke-linecap="round" stroke-linejoin="round"></path> <path d="M153.604 66.6173C153.604 66.6173 122.217 99.28 122.217 171.46" stroke="#E0CABF" stroke-width="4" stroke-miterlimit="10" stroke-linecap="round" stroke-linejoin="round"></path> <path d="M134.097 64.1452C127.23 74.0732 117.19 92.6559 111.47 122.172" stroke="#E0CABF" stroke-width="4" stroke-miterlimit="10" stroke-linecap="round" stroke-linejoin="round"></path> </svg> 